Coordinates
version=1
nRows=19
nColumns=24
inDegrees=yes

Units are S.I. units (second, meters, Newtons, ...)
Angles are in degrees.

endheader
time	pelvis_tilt	pelvis_list	pelvis_rotation	pelvis_tx	pelvis_ty	pelvis_tz	hip_flexion_r	hip_adduction_r	hip_rotation_r	knee_angle_r	ankle_angle_r	subtalar_angle_r	mtp_angle_r	hip_flexion_l	hip_adduction_l	hip_rotation_l	knee_angle_l	ankle_angle_l	subtalar_angle_l	mtp_angle_l	lumbar_extension	lumbar_bending	lumbar_rotation
      3.42000000	     -4.87796121	     -2.56013833	     -4.38842949	     -1.07594872	     -0.03806427	     -0.16713262	     -9.45486344	      7.01807133	      7.69171093	    -26.07018080	      2.58571109	     14.82624179	     21.46219929	     37.00059030	     -2.40521087	    -14.89547234	    -18.94179115	      7.15900185	     12.80801797	    -16.37390999	      5.92178529	      2.29728212	      5.95232140
      3.42500000	     -4.99913043	     -2.17000936	     -4.42461857	     -1.06811433	     -0.03864166	     -0.16786335	     -9.20819844	      6.41357814	      7.26748734	    -27.07005202	      1.62892465	     15.66882670	     22.09942168	     36.89189954	     -1.91600293	    -14.87436285	    -19.36628577	      6.43425030	     12.00772368	    -16.44026544	      6.26171520	      1.85318495	      5.95381878
      3.43000000	     -5.02408902	     -1.80335525	     -4.34160352	     -1.06045928	     -0.03912205	     -0.16885697	     -9.01811571	      5.79409967	      6.59979997	    -28.02276114	      0.35146848	     16.43780832	     23.52639997	     36.70043485	     -1.31684266	    -14.47589644	    -19.72051894	      5.41420717	     10.89773287	    -16.16186249	      6.44591094	      1.42466919	      5.82884156
      3.43500000	     -5.08184761	     -1.34791139	     -4.32612397	     -1.05251737	     -0.03943160	     -0.16966736	     -8.82600595	      5.08451702	      6.13116951	    -28.80867454	     -1.44939543	     16.80027873	     25.85129988	     36.47977819	     -0.69395161	    -14.28759137	    -19.94470815	      4.10035742	      9.83060306	    -14.84168203	      6.73234889	      0.89633662	      5.75149902
      3.44000000	     -5.28300836	     -0.82581322	     -4.26068655	     -1.04463951	     -0.03990801	     -0.17059433	     -8.35501882	      4.28463217	      5.51290492	    -29.93386810	     -2.69531903	     17.91909698	     26.56745192	     36.48591766	      0.02394516	    -13.98053840	    -20.31703844	      3.08310893	      8.86022728	    -14.88459926	      7.16667039	      0.30868392	      5.64281658
      3.44500000	     -5.31999857	     -0.34057575	     -4.15895927	     -1.03690773	     -0.04012172	     -0.17163153	     -8.05820052	      3.48361342	      4.82864640	    -30.82836000	     -4.72267908	     18.48101211	     29.02997893	     36.30929483	      0.78005153	    -13.42564136	    -20.60695993	      1.76826482	      7.60636347	    -14.12370999	      7.37547375	     -0.24615119	      5.49610966
      3.45000000	     -5.54087351	      0.19932097	     -4.06695370	     -1.02911873	     -0.04052693	     -0.17265072	     -7.46526452	      2.62652709	      4.18920774	    -32.02896098	     -6.31734365	     19.59494460	     29.83166950	     36.38256065	      1.56655198	    -12.88853076	    -21.04910564	      0.80014918	      6.48810514	    -14.33164048	      7.80589339	     -0.84611782	      5.36401309
      3.45500000	     -5.61376320	      0.71402321	     -3.87751561	     -1.02140042	     -0.04071474	     -0.17375773	     -7.05737204	      1.77515760	      3.44356530	    -33.00114281	     -8.57583860	     20.21293386	     31.96339584	     36.30792643	      2.40989210	    -12.15427243	    -21.51268799	     -0.15354722	      5.36103961	    -14.52830170	      8.04361112	     -1.44948627	      5.15796086
      3.46000000	     -5.85443452	      1.23928035	     -3.81705588	     -1.01384481	     -0.04107697	     -0.17477129	     -6.31832131	      0.90308764	      2.89525926	    -34.27962155	    -10.56262855	     21.21487306	     32.98171159	     36.45677833	      3.17187312	    -11.55174627	    -22.07707244	     -0.94568895	      4.24043015	    -14.96207149	      8.43887271	     -2.01097609	      5.11962925
      3.46500000	     -6.04223226	      1.76528620	     -3.68311887	     -1.00625233	     -0.04137619	     -0.17585544	     -5.63939807	      0.02151085	      2.29274674	    -35.48729325	    -12.85274682	     21.97726133	     34.25796655	     36.54247540	      3.98765939	    -10.86991812	    -22.66144845	     -1.55848279	      3.17278397	    -15.56756987	      8.77876441	     -2.59256942	      4.99912637
      3.47000000	     -6.28277958	      2.31804443	     -3.58107741	     -0.99858203	     -0.04168753	     -0.17682604	     -4.86498494	     -0.86170408	      1.86396268	    -36.76298550	    -15.19279027	     22.66683022	     35.01048653	     36.65098418	      4.79305482	    -10.27133896	    -23.22132921	     -2.01609755	      2.18218396	    -16.14628888	      9.20031098	     -3.20702520	      4.88602232
      3.47500000	     -6.43519555	      2.84340115	     -3.39071231	     -0.99105913	     -0.04195856	     -0.17791283	     -4.16915719	     -1.74591277	      1.28850540	    -37.97026269	    -17.82555244	     23.12152816	     36.37291086	     36.69452539	      5.60521769	     -9.72714933	    -23.87011060	     -2.12173398	      1.49157813	    -17.17295179	      9.47944522	     -3.80940512	      4.70420549
      3.48000000	     -6.64751659	      3.33864099	     -3.28312195	     -0.98375011	     -0.04228686	     -0.17890708	     -3.28198243	     -2.56722852	      0.90865170	    -39.44211364	    -20.21777003	     23.58431206	     36.26005185	     36.77811460	      6.33391725	     -9.25650104	    -24.44178420	     -2.33522914	      0.65142182	    -17.62550059	      9.78803513	     -4.34698386	      4.66705548
      3.48500000	     -6.83790933	      3.85044493	     -3.10610102	     -0.97646228	     -0.04260440	     -0.17996392	     -2.40346143	     -3.40929520	      0.48150094	    -40.92566019	    -22.62816528	     23.89532308	     36.03512151	     36.80874792	      7.09844805	     -8.86358150	    -24.97432807	     -2.41309718	     -0.01665367	    -18.00412156	     10.06472958	     -4.92125783	      4.54128759
      3.49000000	     -6.97581073	      4.41442943	     -2.92635098	     -0.96917593	     -0.04285352	     -0.18094659	     -1.54879235	     -4.30206958	      0.07731921	    -42.45422248	    -24.98572625	     23.99925331	     35.54008005	     36.73126991	      7.87513179	     -8.68596794	    -25.42500498	     -2.35271251	     -0.43230070	    -18.13744896	     10.28667136	     -5.56924319	      4.39827811
      3.49500000	     -7.13897948	      4.94234038	     -2.70451637	     -0.96205232	     -0.04311703	     -0.18209975	     -0.62098742	     -5.15908480	     -0.32878538	    -44.03078517	    -27.32177817	     23.87929111	     34.81997812	     36.65611685	      8.65518062	     -8.46086636	    -25.82262583	     -2.27905339	     -0.88559913	    -18.24826176	     10.50098579	     -6.15279931	      4.22379704
      3.50000000	     -7.30489105	      5.43272401	     -2.42327335	     -0.95517983	     -0.04337002	     -0.18330273	      0.36326429	     -5.96784493	     -0.76436991	    -45.68084498	    -29.54041467	     23.53974854	     33.77126005	     36.57118858	      9.41671083	     -8.25518321	    -26.18033329	     -2.18530498	     -1.23151980	    -18.29785767	     10.65543676	     -6.71882051	      4.04309886
      3.50500000	     -7.46751404	      5.89509738	     -2.13499066	     -0.94831010	     -0.04358610	     -0.18455940	      1.37301532	     -6.74257382	     -1.17519319	    -47.37895675	    -31.55046500	     22.99800847	     32.21779651	     36.42569085	     10.15161621	     -8.11496023	    -26.45668698	     -1.96794113	     -1.50605171	    -18.19049309	     10.81364524	     -7.24070069	      3.81033727
      3.51000000	     -7.62692995	      6.41441908	     -1.79505190	     -0.94150017	     -0.04378609	     -0.18576981	      2.41178379	     -7.56692179	     -1.58389293	    -49.19084021	    -33.01429540	     22.40731722	     30.08620206	     36.22657379	     10.93528473	     -8.04488932	    -26.63771954	     -1.74683097	     -1.55264037	    -17.76604057	     10.95361683	     -7.86328774	      3.47311605
